{"accessors":[{"name":"doorstep_ramp-Mesh_positions","componentType":5126,"count":18,"min":[-495.16668701171875,-145.41673278808594,-2839.2109375],"max":[507.2024230957031,195.48887634277344,-2498.30517578125],"type":"VEC3","bufferView":0,"byteOffset":0},{"name":"doorstep_ramp-Mesh_normals","componentType":5126,"count":18,"min":[-1,-1,0],"max":[1,0,1],"type":"VEC3","bufferView":0,"byteOffset":7200},{"name":"doorstep_ramp-Mesh_texcoords","componentType":5126,"count":18,"min":[0,0],"max":[1,1],"type":"VEC2","bufferView":1,"byteOffset":0},{"name":"doorstep_ramp-Mesh_0_indices","componentType":5123,"count":24,"min":[0],"max":[17],"type":"SCALAR","bufferView":2,"byteOffset":0},{"name":"Cube_0-Mesh_positions","componentType":5126,"count":24,"min":[740.5052490234375,188.906494140625,1165.58154296875],"max":[840.5052490234375,688.906494140625,1265.58154296875],"type":"VEC3","bufferView":0,"byteOffset":216},{"name":"Cube_0-Mesh_normals","componentType":5126,"count":24,"min":[-1,-1,-1],"max":[1,1,1],"type":"VEC3","bufferView":0,"byteOffset":7416},{"name":"Cube_0-Mesh_texcoords","componentType":5126,"count":24,"min":[0,0],"max":[1,1],"type":"VEC2","bufferView":1,"byteOffset":144},{"name":"Cube_0-Mesh_0_indices","componentType":5123,"count":36,"min":[0],"max":[23],"type":"SCALAR","bufferView":2,"byteOffset":48},{"name":"Cube_1-Mesh_positions","componentType":5126,"count":24,"min":[740.5052490234375,188.906494140625,665.58154296875],"max":[840.5052490234375,688.906494140625,765.58154296875],"type":"VEC3","bufferView":0,"byteOffset":504},{"name":"Cube_1-Mesh_normals","componentType":5126,"count":24,"min":[-1,-1,-1],"max":[1,1,1],"type":"VEC3","bufferView":0,"byteOffset":7704},{"name":"Cube_1-Mesh_texcoords","componentType":5126,"count":24,"min":[0,0],"max":[1,1],"type":"VEC2","bufferView":1,"byteOffset":336},{"name":"Cube_1-Mesh_0_indices","componentType":5123,"count":36,"min":[0],"max":[23],"type":"SCALAR","bufferView":2,"byteOffset":120},{"name":"Cube_0_1-Mesh_positions","componentType":5126,"count":24,"min":[1740.5052490234375,188.906494140625,1165.58154296875],"max":[1840.5052490234375,688.906494140625,1265.58154296875],"type":"VEC3","bufferView":0,"byteOffset":792},{"name":"Cube_0_1-Mesh_normals","componentType":5126,"count":24,"min":[-1,-1,-1],"max":[1,1,1],"type":"VEC3","bufferView":0,"byteOffset":7992},{"name":"Cube_0_1-Mesh_texcoords","componentType":5126,"count":24,"min":[0,0],"max":[1,1],"type":"VEC2","bufferView":1,"byteOffset":528},{"name":"Cube_0_1-Mesh_0_indices","componentType":5123,"count":36,"min":[0],"max":[23],"type":"SCALAR","bufferView":2,"byteOffset":192},{"name":"Cube_1_1-Mesh_positions","componentType":5126,"count":24,"min":[1740.5052490234375,188.906494140625,665.58154296875],"max":[1840.5052490234375,688.906494140625,765.58154296875],"type":"VEC3","bufferView":0,"byteOffset":1080},{"name":"Cube_1_1-Mesh_normals","componentType":5126,"count":24,"min":[-1,-1,-1],"max":[1,1,1],"type":"VEC3","bufferView":0,"byteOffset":8280},{"name":"Cube_1_1-Mesh_texcoords","componentType":5126,"count":24,"min":[0,0],"max":[1,1],"type":"VEC2","bufferView":1,"byteOffset":720},{"name":"Cube_1_1-Mesh_0_indices","componentType":5123,"count":36,"min":[0],"max":[23],"type":"SCALAR","bufferView":2,"byteOffset":264},{"name":"Cube-Mesh_positions","componentType":5126,"count":24,"min":[700.5052490234375,628.906494140625,575.58154296875],"max":[1900.5052490234375,728.906494140625,1375.58154296875],"type":"VEC3","bufferView":0,"byteOffset":1368},{"name":"Cube-Mesh_normals","componentType":5126,"count":24,"min":[-1,-1,-1],"max":[1,1,1],"type":"VEC3","bufferView":0,"byteOffset":8568},{"name":"Cube-Mesh_texcoords","componentType":5126,"count":24,"min":[0,0],"max":[1,1],"type":"VEC2","bufferView":1,"byteOffset":912},{"name":"Cube-Mesh_0_indices","componentType":5123,"count":36,"min":[0],"max":[23],"type":"SCALAR","bufferView":2,"byteOffset":336},{"name":"Cube_2-Mesh_positions","componentType":5126,"count":24,"min":[700.5052490234375,3333.306396484375,-2433.03759765625],"max":[1900.5052490234375,3433.306396484375,-2026.6044921875],"type":"VEC3","bufferView":0,"byteOffset":1656},{"name":"Cube_2-Mesh_normals","componentType":5126,"count":24,"min":[-1,-1,-1],"max":[1,1,1],"type":"VEC3","bufferView":0,"byteOffset":8856},{"name":"Cube_2-Mesh_texcoords","componentType":5126,"count":24,"min":[0,0],"max":[1,1],"type":"VEC2","bufferView":1,"byteOffset":1104},{"name":"Cube_2-Mesh_0_indices","componentType":5123,"count":36,"min":[0],"max":[23],"type":"SCALAR","bufferView":2,"byteOffset":408},{"name":"Cube.1-Mesh_positions","componentType":5126,"count":24,"min":[-956.5139770507812,2782.751220703125,-2433.03759765625],"max":[243.4860382080078,2882.751220703125,-2026.6044921875],"type":"VEC3","bufferView":0,"byteOffset":1944},{"name":"Cube.1-Mesh_normals","componentType":5126,"count":24,"min":[-1,-1,-1],"max":[1,1,1],"type":"VEC3","bufferView":0,"byteOffset":9144},{"name":"Cube.1-Mesh_texcoords","componentType":5126,"count":24,"min":[0,0],"max":[1,1],"type":"VEC2","bufferView":1,"byteOffset":1296},{"name":"Cube.1-Mesh_0_indices","componentType":5123,"count":36,"min":[0],"max":[23],"type":"SCALAR","bufferView":2,"byteOffset":480},{"name":"Cube_3-Mesh_positions","componentType":5126,"count":24,"min":[-3550,-125,-2550],"max":[3550,125,2550],"type":"VEC3","bufferView":0,"byteOffset":2232},{"name":"Cube_3-Mesh_normals","componentType":5126,"count":24,"min":[-1,-1,-1],"max":[1,1,1],"type":"VEC3","bufferView":0,"byteOffset":9432},{"name":"Cube_3-Mesh_texcoords","componentType":5126,"count":24,"min":[0,0],"max":[1,1],"type":"VEC2","bufferView":1,"byteOffset":1488},{"name":"Cube_3-Mesh_0_indices","componentType":5123,"count":36,"min":[0],"max":[23],"type":"SCALAR","bufferView":2,"byteOffset":552},{"name":"Cube.1_0-Mesh_positions","componentType":5126,"count":24,"min":[-3240.653076171875,200,-785.574951171875],"max":[-1640.6529541015625,300,-585.574951171875],"type":"VEC3","bufferView":0,"byteOffset":2520},{"name":"Cube.1_0-Mesh_normals","componentType":5126,"count":24,"min":[-1,-1,-1],"max":[1,1,1],"type":"VEC3","bufferView":0,"byteOffset":9720},{"name":"Cube.1_0-Mesh_texcoords","componentType":5126,"count":24,"min":[0,0],"max":[1,1],"type":"VEC2","bufferView":1,"byteOffset":1680},{"name":"Cube.1_0-Mesh_0_indices","componentType":5123,"count":36,"min":[0],"max":[23],"type":"SCALAR","bufferView":2,"byteOffset":624},{"name":"Cube.1_1-Mesh_positions","componentType":5126,"count":24,"min":[-3240.653076171875,400,-585.574951171875],"max":[-1640.6529541015625,500,-385.574951171875],"type":"VEC3","bufferView":0,"byteOffset":2808},{"name":"Cube.1_1-Mesh_normals","componentType":5126,"count":24,"min":[-1,-1,-1],"max":[1,1,1],"type":"VEC3","bufferView":0,"byteOffset":10008},{"name":"Cube.1_1-Mesh_texcoords","componentType":5126,"count":24,"min":[0,0],"max":[1,1],"type":"VEC2","bufferView":1,"byteOffset":1872},{"name":"Cube.1_1-Mesh_0_indices","componentType":5123,"count":36,"min":[0],"max":[23],"type":"SCALAR","bufferView":2,"byteOffset":696},{"name":"Cube.1_2-Mesh_positions","componentType":5126,"count":24,"min":[-3240.653076171875,600,-385.574951171875],"max":[-1640.6529541015625,700,-185.57493591308594],"type":"VEC3","bufferView":0,"byteOffset":3096},{"name":"Cube.1_2-Mesh_normals","componentType":5126,"count":24,"min":[-1,-1,-1],"max":[1,1,1],"type":"VEC3","bufferView":0,"byteOffset":10296},{"name":"Cube.1_2-Mesh_texcoords","componentType":5126,"count":24,"min":[0,0],"max":[1,1],"type":"VEC2","bufferView":1,"byteOffset":2064},{"name":"Cube.1_2-Mesh_0_indices","componentType":5123,"count":36,"min":[0],"max":[23],"type":"SCALAR","bufferView":2,"byteOffset":768},{"name":"Cube.1_3-Mesh_positions","componentType":5126,"count":24,"min":[-3240.653076171875,800,-185.57493591308594],"max":[-1640.6529541015625,900,14.425063133239746],"type":"VEC3","bufferView":0,"byteOffset":3384},{"name":"Cube.1_3-Mesh_normals","componentType":5126,"count":24,"min":[-1,-1,-1],"max":[1,1,1],"type":"VEC3","bufferView":0,"byteOffset":10584},{"name":"Cube.1_3-Mesh_texcoords","componentType":5126,"count":24,"min":[0,0],"max":[1,1],"type":"VEC2","bufferView":1,"byteOffset":2256},{"name":"Cube.1_3-Mesh_0_indices","componentType":5123,"count":36,"min":[0],"max":[23],"type":"SCALAR","bufferView":2,"byteOffset":840},{"name":"Cube.1_4-Mesh_positions","componentType":5126,"count":24,"min":[-3240.653076171875,1000,14.425063133239746],"max":[-1640.6529541015625,1100,214.42506408691406],"type":"VEC3","bufferView":0,"byteOffset":3672},{"name":"Cube.1_4-Mesh_normals","componentType":5126,"count":24,"min":[-1,-1,-1],"max":[1,1,1],"type":"VEC3","bufferView":0,"byteOffset":10872},{"name":"Cube.1_4-Mesh_texcoords","componentType":5126,"count":24,"min":[0,0],"max":[1,1],"type":"VEC2","bufferView":1,"byteOffset":2448},{"name":"Cube.1_4-Mesh_0_indices","componentType":5123,"count":36,"min":[0],"max":[23],"type":"SCALAR","bufferView":2,"byteOffset":912},{"name":"Cube.1_5-Mesh_positions","componentType":5126,"count":24,"min":[-3240.653076171875,1200,214.42506408691406],"max":[-1640.6529541015625,1300,414.425048828125],"type":"VEC3","bufferView":0,"byteOffset":3960},{"name":"Cube.1_5-Mesh_normals","componentType":5126,"count":24,"min":[-1,-1,-1],"max":[1,1,1],"type":"VEC3","bufferView":0,"byteOffset":11160},{"name":"Cube.1_5-Mesh_texcoords","componentType":5126,"count":24,"min":[0,0],"max":[1,1],"type":"VEC2","bufferView":1,"byteOffset":2640},{"name":"Cube.1_5-Mesh_0_indices","componentType":5123,"count":36,"min":[0],"max":[23],"type":"SCALAR","bufferView":2,"byteOffset":984},{"name":"Cube.1_6-Mesh_positions","componentType":5126,"count":24,"min":[-3240.653076171875,1400,414.425048828125],"max":[-1640.6529541015625,1500,614.425048828125],"type":"VEC3","bufferView":0,"byteOffset":4248},{"name":"Cube.1_6-Mesh_normals","componentType":5126,"count":24,"min":[-1,-1,-1],"max":[1,1,1],"type":"VEC3","bufferView":0,"byteOffset":11448},{"name":"Cube.1_6-Mesh_texcoords","componentType":5126,"count":24,"min":[0,0],"max":[1,1],"type":"VEC2","bufferView":1,"byteOffset":2832},{"name":"Cube.1_6-Mesh_0_indices","componentType":5123,"count":36,"min":[0],"max":[23],"type":"SCALAR","bufferView":2,"byteOffset":1056},{"name":"Cube.1_7-Mesh_positions","componentType":5126,"count":24,"min":[-3240.653076171875,1600,614.425048828125],"max":[-1640.6529541015625,1700,814.425048828125],"type":"VEC3","bufferView":0,"byteOffset":4536},{"name":"Cube.1_7-Mesh_normals","componentType":5126,"count":24,"min":[-1,-1,-1],"max":[1,1,1],"type":"VEC3","bufferView":0,"byteOffset":11736},{"name":"Cube.1_7-Mesh_texcoords","componentType":5126,"count":24,"min":[0,0],"max":[1,1],"type":"VEC2","bufferView":1,"byteOffset":3024},{"name":"Cube.1_7-Mesh_0_indices","componentType":5123,"count":36,"min":[0],"max":[23],"type":"SCALAR","bufferView":2,"byteOffset":1128},{"name":"Cube.1_8-Mesh_positions","componentType":5126,"count":24,"min":[-3240.653076171875,1800,814.425048828125],"max":[-1640.6529541015625,1900,1014.425048828125],"type":"VEC3","bufferView":0,"byteOffset":4824},{"name":"Cube.1_8-Mesh_normals","componentType":5126,"count":24,"min":[-1,-1,-1],"max":[1,1,1],"type":"VEC3","bufferView":0,"byteOffset":12024},{"name":"Cube.1_8-Mesh_texcoords","componentType":5126,"count":24,"min":[0,0],"max":[1,1],"type":"VEC2","bufferView":1,"byteOffset":3216},{"name":"Cube.1_8-Mesh_0_indices","componentType":5123,"count":36,"min":[0],"max":[23],"type":"SCALAR","bufferView":2,"byteOffset":1200},{"name":"Cube.1_9-Mesh_positions","componentType":5126,"count":24,"min":[-3240.653076171875,2000,1014.425048828125],"max":[-1640.6529541015625,2100,1214.425048828125],"type":"VEC3","bufferView":0,"byteOffset":5112},{"name":"Cube.1_9-Mesh_normals","componentType":5126,"count":24,"min":[-1,-1,-1],"max":[1,1,1],"type":"VEC3","bufferView":0,"byteOffset":12312},{"name":"Cube.1_9-Mesh_texcoords","componentType":5126,"count":24,"min":[0,0],"max":[1,1],"type":"VEC2","bufferView":1,"byteOffset":3408},{"name":"Cube.1_9-Mesh_0_indices","componentType":5123,"count":36,"min":[0],"max":[23],"type":"SCALAR","bufferView":2,"byteOffset":1272},{"name":"walls-Mesh_positions","componentType":5126,"count":33,"min":[-3500,0,-2500],"max":[3500,2000,2500],"type":"VEC3","bufferView":0,"byteOffset":5400},{"name":"walls-Mesh_normals","componentType":5126,"count":33,"min":[-1,-1,-1],"max":[1,1,1],"type":"VEC3","bufferView":0,"byteOffset":12600},{"name":"walls-Mesh_texcoords","componentType":5126,"count":33,"min":[0,0],"max":[1,1],"type":"VEC2","bufferView":1,"byteOffset":3600},{"name":"walls-Mesh_0_indices","componentType":5123,"count":72,"min":[0],"max":[32],"type":"SCALAR","bufferView":2,"byteOffset":1344},{"name":"walls_cut-Mesh_positions","componentType":5126,"count":28,"min":[-3300,201,-2300],"max":[3300,2000,2300],"type":"VEC3","bufferView":0,"byteOffset":5796},{"name":"walls_cut-Mesh_normals","componentType":5126,"count":28,"min":[-1,0,-1],"max":[1,1,1],"type":"VEC3","bufferView":0,"byteOffset":12996},{"name":"walls_cut-Mesh_texcoords","componentType":5126,"count":28,"min":[0,0],"max":[1,1],"type":"VEC2","bufferView":1,"byteOffset":3864},{"name":"walls_cut-Mesh_0_indices","componentType":5123,"count":60,"min":[0],"max":[27],"type":"SCALAR","bufferView":2,"byteOffset":1488},{"name":"walls_1-Mesh_positions","componentType":5126,"count":33,"min":[-3500,2000,-2500],"max":[3500,4000,2500],"type":"VEC3","bufferView":0,"byteOffset":6132},{"name":"walls_1-Mesh_normals","componentType":5126,"count":33,"min":[-1,-1,-1],"max":[1,1,1],"type":"VEC3","bufferView":0,"byteOffset":13332},{"name":"walls_1-Mesh_texcoords","componentType":5126,"count":33,"min":[0,0],"max":[1,1],"type":"VEC2","bufferView":1,"byteOffset":4088},{"name":"walls_1-Mesh_0_indices","componentType":5123,"count":72,"min":[0],"max":[32],"type":"SCALAR","bufferView":2,"byteOffset":1608},{"name":"walls_cut_1-Mesh_positions","componentType":5126,"count":24,"min":[-3300,2201,-2300],"max":[3300,4000,2300],"type":"VEC3","bufferView":0,"byteOffset":6528},{"name":"walls_cut_1-Mesh_normals","componentType":5126,"count":24,"min":[-1,0,-1],"max":[1,1,1],"type":"VEC3","bufferView":0,"byteOffset":13728},{"name":"walls_cut_1-Mesh_texcoords","componentType":5126,"count":24,"min":[0,0],"max":[1,1],"type":"VEC2","bufferView":1,"byteOffset":4352},{"name":"walls_cut_1-Mesh_0_indices","componentType":5123,"count":48,"min":[0],"max":[23],"type":"SCALAR","bufferView":2,"byteOffset":1752},{"name":"door_cut-Mesh_positions","componentType":5126,"count":16,"min":[-400,201,-2500],"max":[400,1801,-2300],"type":"VEC3","bufferView":0,"byteOffset":6816},{"name":"door_cut-Mesh_normals","componentType":5126,"count":16,"min":[-1,-1,0],"max":[1,1,0],"type":"VEC3","bufferView":0,"byteOffset":14016},{"name":"door_cut-Mesh_texcoords","componentType":5126,"count":16,"min":[0,0],"max":[1,1],"type":"VEC2","bufferView":1,"byteOffset":4544},{"name":"door_cut-Mesh_0_indices","componentType":5123,"count":24,"min":[0],"max":[15],"type":"SCALAR","bufferView":2,"byteOffset":1848},{"name":"stair_cut-Mesh_positions","componentType":5126,"count":16,"min":[-3240.653076171875,2000,-2256.76904296875],"max":[-1640.6529541015625,2201,1221.5740966796875],"type":"VEC3","bufferView":0,"byteOffset":7008},{"name":"stair_cut-Mesh_normals","componentType":5126,"count":16,"min":[-1,0,-1],"max":[1,0,1],"type":"VEC3","bufferView":0,"byteOffset":14208},{"name":"stair_cut-Mesh_texcoords","componentType":5126,"count":16,"min":[0,0.39945369958877563],"max":[1,0.46144694089889526],"type":"VEC2","bufferView":1,"byteOffset":4672},{"name":"stair_cut-Mesh_0_indices","componentType":5123,"count":24,"min":[0],"max":[15],"type":"SCALAR","bufferView":2,"byteOffset":1896}],"asset":{"generator":"obj2gltf","version":"2.0"},"buffers":[{"name":"input","byteLength":21144,"uri":"data:application/octet-stream;base64,"}],"bufferViews":[{"name":"bufferView_0","buffer":0,"byteLength":14400,"byteOffset":0,"byteStride":12,"target":34962},{"name":"bufferView_1","buffer":0,"byteLength":4800,"byteOffset":14400,"byteStride":8,"target":34962},{"name":"bufferView_2","buffer":0,"byteLength":1944,"byteOffset":19200,"target":34963}],"materials":[{"name":"default","pbrMetallicRoughness":{"baseColorFactor":[0.5,0.5,0.5,1],"metallicFactor":0,"roughnessFactor":1},"emissiveFactor":[0,0,0],"alphaMode":"OPAQUE","doubleSided":false},{"name":"Mat.1","pbrMetallicRoughness":{"baseColorFactor":[0.5,0.5,0.5,1],"metallicFactor":0,"roughnessFactor":1},"emissiveFactor":[0,0,0],"alphaMode":"OPAQUE","doubleSided":false}],"meshes":[{"name":"doorstep_ramp-Mesh","primitives":[{"attributes":{"POSITION":0,"NORMAL":1,"TEXCOORD_0":2},"indices":3,"material":0,"mode":4}]},{"name":"Cube_0-Mesh","primitives":[{"attributes":{"POSITION":4,"NORMAL":5,"TEXCOORD_0":6},"indices":7,"material":0,"mode":4}]},{"name":"Cube_1-Mesh","primitives":[{"attributes":{"POSITION":8,"NORMAL":9,"TEXCOORD_0":10},"indices":11,"material":0,"mode":4}]},{"name":"Cube_0_1-Mesh","primitives":[{"attributes":{"POSITION":12,"NORMAL":13,"TEXCOORD_0":14},"indices":15,"material":0,"mode":4}]},{"name":"Cube_1_1-Mesh","primitives":[{"attributes":{"POSITION":16,"NORMAL":17,"TEXCOORD_0":18},"indices":19,"material":0,"mode":4}]},{"name":"Cube-Mesh","primitives":[{"attributes":{"POSITION":20,"NORMAL":21,"TEXCOORD_0":22},"indices":23,"material":0,"mode":4}]},{"name":"Cube_2-Mesh","primitives":[{"attributes":{"POSITION":24,"NORMAL":25,"TEXCOORD_0":26},"indices":27,"material":0,"mode":4}]},{"name":"Cube.1-Mesh","primitives":[{"attributes":{"POSITION":28,"NORMAL":29,"TEXCOORD_0":30},"indices":31,"material":0,"mode":4}]},{"name":"Cube_3-Mesh","primitives":[{"attributes":{"POSITION":32,"NORMAL":33,"TEXCOORD_0":34},"indices":35,"material":0,"mode":4}]},{"name":"Cube.1_0-Mesh","primitives":[{"attributes":{"POSITION":36,"NORMAL":37,"TEXCOORD_0":38},"indices":39,"material":0,"mode":4}]},{"name":"Cube.1_1-Mesh","primitives":[{"attributes":{"POSITION":40,"NORMAL":41,"TEXCOORD_0":42},"indices":43,"material":0,"mode":4}]},{"name":"Cube.1_2-Mesh","primitives":[{"attributes":{"POSITION":44,"NORMAL":45,"TEXCOORD_0":46},"indices":47,"material":0,"mode":4}]},{"name":"Cube.1_3-Mesh","primitives":[{"attributes":{"POSITION":48,"NORMAL":49,"TEXCOORD_0":50},"indices":51,"material":0,"mode":4}]},{"name":"Cube.1_4-Mesh","primitives":[{"attributes":{"POSITION":52,"NORMAL":53,"TEXCOORD_0":54},"indices":55,"material":0,"mode":4}]},{"name":"Cube.1_5-Mesh","primitives":[{"attributes":{"POSITION":56,"NORMAL":57,"TEXCOORD_0":58},"indices":59,"material":0,"mode":4}]},{"name":"Cube.1_6-Mesh","primitives":[{"attributes":{"POSITION":60,"NORMAL":61,"TEXCOORD_0":62},"indices":63,"material":0,"mode":4}]},{"name":"Cube.1_7-Mesh","primitives":[{"attributes":{"POSITION":64,"NORMAL":65,"TEXCOORD_0":66},"indices":67,"material":0,"mode":4}]},{"name":"Cube.1_8-Mesh","primitives":[{"attributes":{"POSITION":68,"NORMAL":69,"TEXCOORD_0":70},"indices":71,"material":0,"mode":4}]},{"name":"Cube.1_9-Mesh","primitives":[{"attributes":{"POSITION":72,"NORMAL":73,"TEXCOORD_0":74},"indices":75,"material":0,"mode":4}]},{"name":"walls-Mesh","primitives":[{"attributes":{"POSITION":76,"NORMAL":77,"TEXCOORD_0":78},"indices":79,"material":1,"mode":4}]},{"name":"walls_cut-Mesh","primitives":[{"attributes":{"POSITION":80,"NORMAL":81,"TEXCOORD_0":82},"indices":83,"material":1,"mode":4}]},{"name":"walls_1-Mesh","primitives":[{"attributes":{"POSITION":84,"NORMAL":85,"TEXCOORD_0":86},"indices":87,"material":1,"mode":4}]},{"name":"walls_cut_1-Mesh","primitives":[{"attributes":{"POSITION":88,"NORMAL":89,"TEXCOORD_0":90},"indices":91,"material":1,"mode":4}]},{"name":"door_cut-Mesh","primitives":[{"attributes":{"POSITION":92,"NORMAL":93,"TEXCOORD_0":94},"indices":95,"material":1,"mode":4}]},{"name":"stair_cut-Mesh","primitives":[{"attributes":{"POSITION":96,"NORMAL":97,"TEXCOORD_0":98},"indices":99,"material":1,"mode":4}]}],"nodes":[{"name":"doorstep_ramp","mesh":0},{"name":"Cube_0","mesh":1},{"name":"Cube_1","mesh":2},{"name":"Cube_0_1","mesh":3},{"name":"Cube_1_1","mesh":4},{"name":"Cube","mesh":5},{"name":"Cube_2","mesh":6},{"name":"Cube.1","mesh":7},{"name":"Cube_3","mesh":8},{"name":"Cube.1_0","mesh":9},{"name":"Cube.1_1","mesh":10},{"name":"Cube.1_2","mesh":11},{"name":"Cube.1_3","mesh":12},{"name":"Cube.1_4","mesh":13},{"name":"Cube.1_5","mesh":14},{"name":"Cube.1_6","mesh":15},{"name":"Cube.1_7","mesh":16},{"name":"Cube.1_8","mesh":17},{"name":"Cube.1_9","mesh":18},{"name":"walls","mesh":19},{"name":"walls_cut","mesh":20},{"name":"walls_1","mesh":21},{"name":"walls_cut_1","mesh":22},{"name":"door_cut","mesh":23},{"name":"stair_cut","mesh":24}],"scene":0,"scenes":[{"nodes":[0,1,2,3,4,5,6,7,8,9,10,11,12,13,14,15,16,17,18,19,20,21,22,23,24]}]}
